<svg xmlns="http://www.w3.org/2000/svg" width="133.244" height="33.98" viewBox="0 0 133.244 33.98">
  <g id="ziply-fiber" transform="translate(-2 0.042)">
    <path id="Path_8645" data-name="Path 8645" d="M26.061,23.129V10.442h4.393v.966l1.075-.492a8.84,8.84,0,0,1,11.511,4.1,8.385,8.385,0,0,1,.866,4.539,8.175,8.175,0,0,1-2.443,5.477,8.339,8.339,0,0,1-3.481,2.26,9.223,9.223,0,0,1-6.99-.62l-.538-.328v9.46H26.061Zm10.672.064A4.611,4.611,0,0,0,39.4,19a4.508,4.508,0,0,0-1.385-3.427,3.69,3.69,0,0,0-3.108-1.221c-2.488.018-4.174,1.85-4.174,4.557-.018,2.37,1.221,4.065,3.3,4.484A4.511,4.511,0,0,0,36.733,23.193ZM53.675,33.938c-.064-.082.957-2.926,2.342-6.507.7-1.786.711-1.613-.355-4.311l-1.577-3.965-1.932-4.94c-.747-1.887-1.367-3.527-1.367-3.609a6.224,6.224,0,0,1,2.16-.164h2.16l1.887,4.73,1.868,4.73,1.021-2.734L61.213,13.6c.684-1.823.811-2.133.957-2.634l.164-.538h4.5l-.31.866-.538,1.413-3.026,8.048-3.108,8.294c-.164.456-.647,1.723-1.094,2.844L58,33.929l-2.133.046a13.762,13.762,0,0,1-2.187-.036ZM2,26.328V25.143L3.9,22.8c1.039-1.3,2.944-3.655,4.229-5.231,1.267-1.595,2.324-2.926,2.324-2.971s-1.9-.082-4.229-.082H2V10.442H17.6V12.7l-3.044,3.791c-1.677,2.078-3.573,4.457-4.247,5.25L9.127,23.211l4.247.046,4.229.036v4.229H2Zm17.562-7.346v-8.54h4.393V27.522H19.562ZM45.09,14.753V2.021c1.075.027,3.235-.027,4.311,0L49.447,14.8l.036,12.714H45.09Z" transform="translate(0 -1.868)" fill="#009300"/>
    <path id="Path_8646" data-name="Path 8646" d="M191.408,5.475a2.57,2.57,0,0,1-.638-4.192A2.616,2.616,0,0,1,195.1,2.5a2.479,2.479,0,0,1-1.367,2.971A2.3,2.3,0,0,1,191.408,5.475ZM251.769,2.75a3.69,3.69,0,0,0-1.832-.456q-2.9,0-2.9,3.655V8.611h4.037v2.351h-4.037V25.845H244.3V10.962h-2.944V8.611H244.3v-2.8a5.79,5.79,0,0,1,1.568-4.283,5.322,5.322,0,0,1,3.9-1.568,5.468,5.468,0,0,1,2.005.3V2.75Zm2.789,1.486a1.732,1.732,0,0,1-1.777-1.777,1.717,1.717,0,0,1,.519-1.285,1.7,1.7,0,0,1,1.258-.51,1.8,1.8,0,0,1,1.285.51,1.719,1.719,0,0,1,.529,1.285,1.687,1.687,0,0,1-.529,1.258,1.75,1.75,0,0,1-1.285.519Zm1.349,21.609h-2.761V8.611h2.761Zm7.519-2.5h-.064v2.5H260.6V.335h2.762v11.31h.064a6.535,6.535,0,0,1,5.96-3.436,6.345,6.345,0,0,1,5.195,2.315,9.558,9.558,0,0,1,1.877,6.2,10.682,10.682,0,0,1-2.105,6.927,7,7,0,0,1-5.751,2.6A5.672,5.672,0,0,1,263.426,23.348Zm-.073-6.945v2.406a5.151,5.151,0,0,0,1.385,3.627,4.961,4.961,0,0,0,7.455-.428,8.784,8.784,0,0,0,1.422-5.332,6.984,6.984,0,0,0-1.331-4.511,4.4,4.4,0,0,0-3.6-1.631,4.885,4.885,0,0,0-3.873,1.677,6.161,6.161,0,0,0-1.458,4.192Zm30.458,1.513H281.644a6.452,6.452,0,0,0,1.549,4.438,5.35,5.35,0,0,0,4.074,1.568,8.465,8.465,0,0,0,5.35-1.914V24.6a9.975,9.975,0,0,1-6.006,1.65,7.291,7.291,0,0,1-5.742-2.351,9.6,9.6,0,0,1-2.087-6.608,9.408,9.408,0,0,1,2.278-6.553,7.322,7.322,0,0,1,5.66-2.534,6.475,6.475,0,0,1,5.231,2.187,9.131,9.131,0,0,1,1.85,6.07v1.458Zm-2.834-2.342a5.6,5.6,0,0,0-1.148-3.718,3.919,3.919,0,0,0-3.153-1.331,4.466,4.466,0,0,0-3.317,1.394,6.361,6.361,0,0,0-1.686,3.655ZM306.07,11.4a3.354,3.354,0,0,0-2.087-.556,3.526,3.526,0,0,0-2.953,1.668,7.684,7.684,0,0,0-1.185,4.539v8.795h-2.761V8.611h2.761v3.554h.064a5.961,5.961,0,0,1,1.8-2.834A4.138,4.138,0,0,1,304.42,8.31a4.547,4.547,0,0,1,1.65.237V11.4Z" transform="translate(-170.825)" fill="#02caff"/>
  </g>
</svg>
